<?xml version="1.0" standalone="no"?>
<!DOCTYPE svg PUBLIC "-//W3C//DTD SVG 20010904//EN"
 "http://www.w3.org/TR/2001/REC-SVG-20010904/DTD/svg10.dtd">
<svg version="1.0" xmlns="http://www.w3.org/2000/svg"
 width="64.000000pt" height="64.000000pt" viewBox="0 0 64.000000 64.000000"
 preserveAspectRatio="xMidYMid meet">

<g transform="translate(0.000000,64.000000) scale(0.100000,-0.100000)"
fill="#989aa2" stroke="none">
<path d="M169 578 c-7 -12 -11 -39 -11 -60 2 -44 -10 -49 -26 -13 -13 29 -41
34 -44 8 -3 -35 3 -57 18 -74 23 -26 9 -40 -23 -24 -30 16 -43 12 -43 -13 1
-22 19 -46 47 -61 33 -17 28 -31 -12 -31 -19 0 -35 -4 -35 -8 0 -19 30 -47 61
-57 18 -6 35 -18 37 -26 3 -8 1 -11 -2 -7 -10 8 -66 -11 -66 -23 0 -15 41 -30
75 -27 26 2 41 -4 62 -23 15 -15 41 -35 57 -45 26 -16 27 -19 10 -25 -11 -4
-34 -8 -51 -8 -18 -1 -33 -6 -33 -12 0 -8 15 -10 53 -4 65 10 89 10 155 0 37
-6 52 -4 52 4 0 6 -15 11 -32 12 -18 0 -41 4 -52 8 -17 6 -16 9 10 25 16 10
42 30 57 45 21 19 36 25 62 23 34 -3 75 12 75 27 0 12 -56 31 -66 23 -3 -4 -5
-1 -2 7 2 8 19 20 37 26 31 10 61 38 61 57 0 4 -16 8 -35 8 -40 0 -45 14 -12
31 28 15 46 39 47 61 0 25 -13 29 -43 13 -32 -16 -46 -2 -23 24 15 17 21 39
18 74 -3 26 -31 21 -44 -8 -16 -36 -28 -31 -26 13 2 58 -31 106 -46 66 -12
-31 -6 -73 13 -91 69 -66 82 -171 31 -259 -32 -56 -110 -131 -146 -140 -44
-11 -140 70 -184 155 -40 79 -22 184 41 244 19 18 25 60 13 91 -9 22 -21 20
-35 -6z m21 -40 c0 -23 -3 -29 -9 -19 -8 12 -4 51 5 51 2 0 4 -15 4 -32z m273
13 c2 -10 1 -25 -4 -32 -6 -10 -9 -4 -9 19 0 36 5 42 13 13z m-339 -67 c11
-28 6 -39 -9 -20 -8 11 -15 23 -15 28 0 14 18 9 24 -8z m405 -15 c-13 -26 -23
-18 -14 10 3 12 11 19 16 16 5 -4 5 -14 -2 -26z m-441 -81 c14 -14 16 -28 2
-28 -5 0 -14 9 -20 20 -12 22 -1 27 18 8z m482 -8 c-11 -20 -30 -28 -30 -12 0
11 22 32 32 32 5 0 4 -9 -2 -20z m-460 -105 c16 -19 0 -19 -26 0 -16 12 -16
14 -3 15 9 0 22 -7 29 -15z m446 0 c-26 -19 -42 -19 -26 0 7 8 20 15 29 15 13
-1 13 -3 -3 -15z m-408 -92 c-10 -2 -26 -2 -35 0 -10 3 -2 5 17 5 19 0 27 -2
18 -5z m380 0 c-10 -2 -26 -2 -35 0 -10 3 -2 5 17 5 19 0 27 -2 18 -5z"/>
<path d="M248 459 c-43 -22 -78 -81 -78 -129 0 -74 76 -150 149 -150 77 0 151
74 151 150 0 50 -35 107 -80 130 -49 25 -94 25 -142 -1z m151 -27 c58 -43 64
-140 12 -193 -76 -75 -204 -30 -217 77 -14 110 115 183 205 116z"/>
<path d="M259 391 c-39 -40 -39 -82 0 -122 20 -20 39 -29 61 -29 43 0 90 47
90 90 0 43 -47 90 -90 90 -22 0 -41 -9 -61 -29z m108 -13 c29 -27 29 -65 1
-95 -27 -29 -65 -29 -95 -1 -29 27 -29 65 -1 95 27 29 65 29 95 1z"/>
</g>
</svg>
